<svg xmlns="http://www.w3.org/2000/svg" xmlns:xlink="http://www.w3.org/1999/xlink" viewBox="-421.66 176.3 265.36 86.5">
  <defs>
    <style>
      .cls-1 {
        fill: none;
      }

      .cls-2 {
        clip-path: url(#clip-path);
      }
    </style>
    <clipPath id="clip-path">
      <path id="path20" d="M0-771.023H264.7v86.5H0Z" transform="translate(2 771.023)"/>
    </clipPath>
  </defs>
  <g id="Box_Ready" transform="translate(-423 176.298)">
    <path id="path12" class="cls-1" d="M174.48-677.326H8.891v-84.8H174.48Z" transform="translate(-6.439 763.13)"/>
    <path id="path14" class="cls-1" d="M0-684.522H168.041v-86.5H0Z" transform="translate(1.34 771.024)"/>
    <g id="g16" transform="translate(0 0.002)">
      <g id="g18" class="cls-2" transform="translate(0 0)">
        <g id="g24" transform="translate(91.917 63.8)">
          <path id="path26" d="M-1.9-42.323q.6-1.53,1.922-4.179l-1.786.107a.953.953,0,0,1,.618-.855,5.821,5.821,0,0,1,1.77-.478,5.7,5.7,0,0,1,.359-.666L2.9-52.086c.018-.024.079-.128.179-.315a1.167,1.167,0,0,0,.151-.549.219.219,0,0,0-.082-.2.531.531,0,0,0-.274-.054,2.446,2.446,0,0,0-1.441.532A4.982,4.982,0,0,0,.207-51.393a2.492,2.492,0,0,0-.493,1.306,1.95,1.95,0,0,0,.274.811,3.316,3.316,0,0,1-1.634-.314.975.975,0,0,1-.536-.874,2.235,2.235,0,0,1,.949-1.594,7.943,7.943,0,0,1,2.318-1.36,6.879,6.879,0,0,1,2.5-.541,1.931,1.931,0,0,1,1.18.28.864.864,0,0,1,.359.712,1.928,1.928,0,0,1-.221.774l-2,4.324q.44-.018,1.374-.018,2.471,0,4.8.143a41.666,41.666,0,0,1,2.692-5.223,2.888,2.888,0,0,1,.7-.7,2.193,2.193,0,0,1,1.277-.305q-.577,1.027-1.414,2.837t-1.469,3.485l.961.018c.62.024,1.1.035,1.427.035a4.8,4.8,0,0,1-1.4.667,5.282,5.282,0,0,1-1.318.163,38.229,38.229,0,0,0-1.194,3.855,11.537,11.537,0,0,0-.4,2.54,3.544,3.544,0,0,0,.136.954,4.1,4.1,0,0,1-1.907-.441A1.4,1.4,0,0,1,6.661-41.1a6.844,6.844,0,0,1,.427-2.08,31.5,31.5,0,0,1,1.551-3.576q-2.171,0-3.667.027c-1,.018-1.889.052-2.677.1-.037.073-.211.45-.52,1.135s-1.081,2.3-2.308,4.846a1.851,1.851,0,0,1-.975.909,3.25,3.25,0,0,1-1.33.315,21.876,21.876,0,0,1,.934-2.9" transform="translate(2.839 53.977)"/>
        </g>
        <g id="g28" transform="translate(105.611 71.136)">
          <path id="path30" d="M-9.913-20.2a6.842,6.842,0,0,0,1.076-.964,3.512,3.512,0,0,1-1.241-2.778,1.791,1.791,0,0,0-.6.7,6.93,6.93,0,0,0-.6,1.3,3.921,3.921,0,0,0-.249,1.248q0,.868.7.869a1.7,1.7,0,0,0,.91-.378m2.472-3.024A3.353,3.353,0,0,0-7.1-24.585q0-.83-.579-.83a.881.881,0,0,0-.558.246,1.839,1.839,0,0,0-.476.651,2.141,2.141,0,0,0-.186.9,3.5,3.5,0,0,0,.166.992,2.242,2.242,0,0,0,.434.86,7.96,7.96,0,0,0,.858-1.455M-12.8-19.367a2.053,2.053,0,0,1-.382-1.266,4.189,4.189,0,0,1,.361-1.644,4.315,4.315,0,0,1,.942-1.418,1.7,1.7,0,0,1,1.178-.566,1.884,1.884,0,0,1,.642.15,2.511,2.511,0,0,1,.672-1.435,2.039,2.039,0,0,1,1.541-.568,1.584,1.584,0,0,1,1.22.426,1.562,1.562,0,0,1,.393,1.1,3.753,3.753,0,0,1-.383,1.512,10.188,10.188,0,0,1-.982,1.7,1.363,1.363,0,0,0,.579.114,2.677,2.677,0,0,0,1.241-.349,2.322,2.322,0,0,0,1.013-1.067l.373.246a3.274,3.274,0,0,1-1.169,1.38,2.771,2.771,0,0,1-1.519.473,3.568,3.568,0,0,1-1.035-.17,7.164,7.164,0,0,1-1.674,1.36,3.52,3.52,0,0,1-1.779.529,1.439,1.439,0,0,1-1.23-.51" transform="translate(13.18 26.115)"/>
        </g>
        <g id="g32" transform="translate(113.555 69.3)">
          <path id="path34" d="M-1.726-42.589a1.4,1.4,0,0,1-.443-1.126,5.277,5.277,0,0,1,.256-1.428,15.76,15.76,0,0,1,.681-1.844,3.769,3.769,0,0,1-.6-.128v-.445q.409.044.818.072A15.9,15.9,0,0,1,.634-50.271q.878-1.162,1.423-1.162a.521.521,0,0,1,.333.114.368.368,0,0,1,.145.3A1.3,1.3,0,0,1,2.3-50.4q-.239.388-.784,1.177Q.762-48.162.335-47.446q1.96,0,3.119-.1v.474Q1.443-46.9.029-46.9a6.861,6.861,0,0,0-.886,2.884,1.232,1.232,0,0,0,.222.832.9.9,0,0,0,.7.244,2.972,2.972,0,0,0,1.747-.652,5.844,5.844,0,0,0,1.559-1.772l.239.143A6.418,6.418,0,0,1,1.8-43.048a3.764,3.764,0,0,1-2.3.838,1.825,1.825,0,0,1-1.227-.379" transform="translate(2.169 51.433)"/>
        </g>
        <g id="g36" transform="translate(123.85 63.8)">
          <path id="path38" d="M-7.122-36.02q3.37-6.038,4.514-8.11a1.329,1.329,0,0,0,.2-.6q0-.4-.638-.4a2.354,2.354,0,0,0-1.453.445,2.789,2.789,0,0,0-.893,1.118,3.345,3.345,0,0,0-.3,1.365,4.921,4.921,0,0,0,.089.871,1.388,1.388,0,0,1-1.145-.518,1.758,1.758,0,0,1-.42-1.136,2.138,2.138,0,0,1,.683-1.464,5.06,5.06,0,0,1,1.752-1.162,5.423,5.423,0,0,1,2.1-.447,2.432,2.432,0,0,1,1.421.392,2.468,2.468,0,0,1,.857,1.373,9.889,9.889,0,0,1,.3,2.745q0,1.272-.241,3.944c-.119,1.31-.175,2.146-.175,2.509A26.37,26.37,0,0,1,1.4-38.748q1.211-2.018,2.41-3.737t1.883-2.554a3.166,3.166,0,0,1,.6-.627,1.033,1.033,0,0,1,.617-.173,3.771,3.771,0,0,1,.968.2A18.083,18.083,0,0,0,6.73-42.457q-.7,2.4-1.221,5.045a23.3,23.3,0,0,0-.519,4.264,3.927,3.927,0,0,0,.066.836,3.115,3.115,0,0,0,.189.537c.079.175.142.306.187.391A3.5,3.5,0,0,1,4-31.612a1.23,1.23,0,0,1-.662-.728,4.415,4.415,0,0,1-.175-1.408A17.022,17.022,0,0,1,3.636-37.6q.474-2.034,1.4-4.981a28.81,28.81,0,0,0-3.041,4.637A50.885,50.885,0,0,0-.45-33.021l-.152.037a.949.949,0,0,1-.309.055.927.927,0,0,1-.958-.691,7.56,7.56,0,0,1-.231-2.2q0-.928.089-3.109.087-2.292.088-3.346l-.022-1.072-2.27,4.4q-1.628,3.2-2.432,4.646a10.534,10.534,0,0,1-1.52,2.181,2.107,2.107,0,0,1-1.508.736q.266-.653,2.554-4.635" transform="translate(7.676 46.057)"/>
        </g>
        <g id="g40" transform="translate(138.576 71.136)">
          <path id="path42" d="M-10.011-20.1a6.7,6.7,0,0,0,1.043-.979,3.64,3.64,0,0,1-1.2-2.824,1.781,1.781,0,0,0-.582.711,7.035,7.035,0,0,0-.582,1.324,4.123,4.123,0,0,0-.241,1.268c0,.589.226.883.681.883a1.611,1.611,0,0,0,.883-.384m2.4-3.073a3.526,3.526,0,0,0,.33-1.384q0-.844-.56-.844a.837.837,0,0,0-.542.25,1.874,1.874,0,0,0-.461.662,2.254,2.254,0,0,0-.181.912,3.753,3.753,0,0,0,.161,1.009,2.329,2.329,0,0,0,.421.874,8.2,8.2,0,0,0,.833-1.479m-5.2,3.918a2.157,2.157,0,0,1-.371-1.287,4.408,4.408,0,0,1,.351-1.671,4.382,4.382,0,0,1,.913-1.441,1.614,1.614,0,0,1,1.142-.575,1.761,1.761,0,0,1,.622.153A2.6,2.6,0,0,1-9.5-25.539,1.927,1.927,0,0,1-8-26.116a1.494,1.494,0,0,1,1.181.433,1.632,1.632,0,0,1,.383,1.122,3.966,3.966,0,0,1-.371,1.536A10.638,10.638,0,0,1-7.764-21.3a1.276,1.276,0,0,0,.562.115A2.5,2.5,0,0,0-6-21.535a2.309,2.309,0,0,0,.983-1.085l.362.249a3.279,3.279,0,0,1-1.133,1.4,2.6,2.6,0,0,1-1.474.48,3.316,3.316,0,0,1-1-.173A7.044,7.044,0,0,1-9.89-19.279a3.3,3.3,0,0,1-1.725.538,1.367,1.367,0,0,1-1.194-.518" transform="translate(13.18 26.116)"/>
        </g>
        <g id="g44" transform="translate(146.332 71.136)">
          <path id="path46" d="M-30.6-21.533a1.538,1.538,0,0,1-.447-1.137,2.937,2.937,0,0,1,.1-.719,6.312,6.312,0,0,1,.235-.741,4.246,4.246,0,0,0,.29-1.218q0-.608-.514-.608a1.776,1.776,0,0,0-1.139.649,20.265,20.265,0,0,0-1.743,2.131q-.268.363-.8,1.237l-.424.689a3.027,3.027,0,0,1-.872-.142q-.468-.142-.468-.386a6.029,6.029,0,0,1,.468-1.3q.446-1.053.727-1.845a4.153,4.153,0,0,0,.279-1.32q0-.608-.47-.608a2.7,2.7,0,0,0-1.563.863,12.907,12.907,0,0,0-1.9,2.192A12.558,12.558,0,0,0-40.3-21.169a2.8,2.8,0,0,1-.95-.2c-.364-.136-.547-.25-.547-.344l1.43-5.194c.044-.148.2-.28.48-.395a1.958,1.958,0,0,1,.748-.174.8.8,0,0,1,.547.183.613.613,0,0,1,.214.487,7.638,7.638,0,0,1-.314,1.46,13.38,13.38,0,0,1,2.212-2.222,3.581,3.581,0,0,1,2.146-.883,1.205,1.205,0,0,1,1.083.488,2.156,2.156,0,0,1,.324,1.218,2.775,2.775,0,0,1-.09.719c-.06.224-.156.524-.29.9q1.564-2.09,3.24-2.091a1.454,1.454,0,0,1,1.173.437,1.626,1.626,0,0,1,.368,1.085,5.614,5.614,0,0,1-.447,1.826c-.015.053-.071.23-.167.528a2.455,2.455,0,0,0-.146.73.489.489,0,0,0,.559.549,2.117,2.117,0,0,0,1.575-.934,12.433,12.433,0,0,0,1.441-2.231l.38.427A8.988,8.988,0,0,1-27-22.182a3.111,3.111,0,0,1-2.336,1.1,1.723,1.723,0,0,1-1.273-.447" transform="translate(41.799 28.452)"/>
        </g>
        <g id="g48" transform="translate(160.779 71.136)">
          <path id="path50" d="M-30.364-21.533a1.522,1.522,0,0,1-.457-1.137,2.9,2.9,0,0,1,.1-.719,6.352,6.352,0,0,1,.24-.741,4.163,4.163,0,0,0,.3-1.218q0-.608-.525-.608a1.825,1.825,0,0,0-1.164.649,20.357,20.357,0,0,0-1.781,2.131q-.274.363-.822,1.237l-.433.689a3.148,3.148,0,0,1-.891-.142c-.319-.094-.479-.222-.479-.386a5.967,5.967,0,0,1,.479-1.3q.456-1.053.743-1.845a4.077,4.077,0,0,0,.285-1.32q0-.608-.479-.608a2.783,2.783,0,0,0-1.6.863,13.041,13.041,0,0,0-1.94,2.192,12.576,12.576,0,0,0-1.484,2.626,2.906,2.906,0,0,1-.97-.2c-.372-.136-.559-.25-.559-.344l1.461-5.194c.045-.148.209-.28.491-.395a2.031,2.031,0,0,1,.764-.174.839.839,0,0,1,.56.183.608.608,0,0,1,.217.487,7.434,7.434,0,0,1-.32,1.46,13.47,13.47,0,0,1,2.259-2.222,3.7,3.7,0,0,1,2.191-.883,1.241,1.241,0,0,1,1.106.488,2.119,2.119,0,0,1,.331,1.218,2.72,2.72,0,0,1-.092.719c-.061.224-.159.524-.3.9q1.6-2.09,3.31-2.091a1.5,1.5,0,0,1,1.2.437,1.605,1.605,0,0,1,.376,1.085,5.519,5.519,0,0,1-.457,1.826c-.015.053-.072.23-.17.528a2.407,2.407,0,0,0-.148.73q0,.549.57.549a2.172,2.172,0,0,0,1.609-.934,12.388,12.388,0,0,0,1.472-2.231l.389.427a8.968,8.968,0,0,1-1.7,2.617,3.2,3.2,0,0,1-2.386,1.1,1.784,1.784,0,0,1-1.3-.447" transform="translate(41.799 28.452)"/>
        </g>
        <g id="g52" transform="translate(176.015 71.136)">
          <path id="path54" d="M-6.82-33.638a9.148,9.148,0,0,0,1.545-2.045,12.386,12.386,0,0,0-2.294,1.114q-.958.608-.957,1.183a.577.577,0,0,0,.1.34.381.381,0,0,0,.334.148,2.178,2.178,0,0,0,1.268-.74m-2.145,1.1a.934.934,0,0,1-.461-.844,1.593,1.593,0,0,1,.68-1.235,6.454,6.454,0,0,1,1.58-.94q.9-.383,2.329-.887a25.889,25.889,0,0,0,1.107-2.715,8.52,8.52,0,0,1-1.626,1.392,3.107,3.107,0,0,1-1.7.506,2.651,2.651,0,0,1-1.361-.349,1.174,1.174,0,0,1-.6-1.1,4.227,4.227,0,0,1,.369-1.506,7.246,7.246,0,0,1,.876-1.6q.508-.686.876-.686a2.12,2.12,0,0,1,.692.182.973.973,0,0,1,.554.392A6.085,6.085,0,0,0-6.6-40.416a4.157,4.157,0,0,0-.519,1.671c0,.429.222.644.669.644a2.562,2.562,0,0,0,1.5-.609,9.412,9.412,0,0,0,1.545-1.5,4.892,4.892,0,0,0,.139-.575,1.588,1.588,0,0,1,.415-.791,1.216,1.216,0,0,1,.923-.34c.062,0,.308.024.738.069a9.255,9.255,0,0,1-.541,1.9,26,26,0,0,1-1.211,2.855A7.484,7.484,0,0,0-.812-38.153a4.958,4.958,0,0,0,1.579-1.88l.392.243A4.46,4.46,0,0,1-.512-37.771a10.951,10.951,0,0,1-2.733,1.34,14.127,14.127,0,0,1-2.2,3.055,3.367,3.367,0,0,1-2.41,1.122,2.056,2.056,0,0,1-1.107-.286" transform="translate(9.425 42.504)"/>
        </g>
        <g id="g56" transform="translate(20.779 31.4)">
          <path id="path58" d="M-108.546-49.817a10.211,10.211,0,0,1,.305-3.695c.3-2.21-2.572-4.727-2.865-6.546.111.05.273.087.327.154,2.861,3.555,2.018,2.817,3.351,7.083l-.23.041a7.323,7.323,0,0,1-.888,2.963m-2.144-.042c-.356-.09-.062-.539-.011-.742l.094.014q-.043.364-.083.727m-2.149,5.286c-.636,1.31-3.328,5.606-4.835,6.436.6-1.754,5.439-6.072,6.428-11,.027-.132.23-.251.351-.377l.175.413c-.676,1.45-1.373,3-2.119,4.532M-124.68-31.3a18.387,18.387,0,0,1,1.993-2.871c2.808-4.479,8.7-14.976,10.63-19.173l.287.035a28.718,28.718,0,0,1-1.105,3.736c-2.633,6.015-4.254,7.984-8.268,13.6-.784,1.1-2.43,3.9-3.537,4.674m-6.685,6.083c-1.332,1.824-2.55,3.679-3.82,5.52-.6.865-.535,1.129-2.136.6-.688-.226-1.515-.294-2.226-.5-4.489-1.295-6.241-3.211-9.859-4.865a43.717,43.717,0,0,1-11.028-8.266c-2.323-2.487-2.837-5.039-3.52-7.8l.223-.022c-.2-2.463-.283-4.966.871-7.37a16.428,16.428,0,0,1,6.6-7.509,11.2,11.2,0,0,1,6.047-1.275c3.442.087,5.038,5.357,7.1,5.154,1.709-.169,3.059-4.359,10.288-7.193,4.815-1.887,14.689-4.842,18.836-.853,1.472,1.415.729,5.534-.259,7.28-2.195,3.879-4.335,7.768-6.555,11.642-3.811,6.658-5.948,9.129-10.563,15.451m-14.272,4.729c-3.111-1.569-6.326-3.079-9.206-4.792-2.213-1.316-7.384-5.321-7.673-7.308l5.353,4.392c6,4.6,8.579,4.9,13.864,8.3a5.675,5.675,0,0,1-2.339-.588m-12.075-3.654.2-.052a24.517,24.517,0,0,1,4.972,2.328,27.017,27.017,0,0,1-5.174-2.277m-2.419-3.314,3.057,2.141-.023.106c-.965-.251-2.935-1.283-3.034-2.247m-6.886-16.553a14.345,14.345,0,0,1,.856-2.586c.506-.931,2.361-4.427,3.266-4.98a.847.847,0,0,1-.083.3c-2.862,4.125-2.022,6.553-2.883,8.522a4.04,4.04,0,0,1-1.156-1.257m7.2-12.9c.71-.333,3.356-1.729,4.046-1.736a21.076,21.076,0,0,1-4.133,2c.034-.118.01-.232.087-.268m51.875-2.181c-1.75-2.216-4.9-2.966-8.37-4.021-2.753-.838-6.992-.566-9.751,0-2.824.576-5.843.884-8.245,2.071-.72.357-1.411.738-2.164,1.067-5.687,2.491-6.012,4.158-7.116,3.5-3.052-1.823-7.42-4.5-12.178-3.512-7.341,1.529-9.583,5.768-11.8,9.732a16.507,16.507,0,0,0-2.487,8.221c.04,2.785,1.281,5.421,2.8,8.025a39.853,39.853,0,0,0,3.324,5.6,46.855,46.855,0,0,0,4.36,4.625c4.8,3.512,11.873,3.522,17.533,6.162a21.957,21.957,0,0,0,6.064,1.367c3.4.488,5.371-4.838,8.548-7.753,7.9-7.252,14.153-14.094,19.21-22.2,2.73-4.379,3.727-8.492.267-12.877" transform="translate(185.049 63.64)"/>
        </g>
      </g>
    </g>
  </g>
</svg>
