<svg xmlns="http://www.w3.org/2000/svg" viewBox="-467 -565 304 232">
  <defs>
    <style>
      .cls-1 {
        fill: none;
      }

      .cls-2 {
        fill: #fff;
      }
    </style>
  </defs>
  <rect id="Rectangle_1" data-name="Rectangle 1" class="cls-1" width="304" height="232" transform="translate(-467 -565)"/>
  <g id="Symbol_1_1" data-name="Symbol 1 – 1" transform="translate(-340 -575)">
    <path id="Path_5" data-name="Path 5" class="cls-2" d="M348.212,110.061c-.833-5.318.463-10.884.926-16.2.926-9.721-7.5-20.772-8.423-28.748.37.249.833.415,1.018.748,8.331,15.537,5.924,12.3,9.812,30.991a2.566,2.566,0,0,1-.648.166c-.648,4.4-.741,8.973-2.684,13.045m-6.2-.249c-1.111-.332-.185-2.326-.093-3.24a.366.366,0,0,0,.278.083c-.093,1.08-.185,2.16-.185,3.157m-6.387,23.181c-1.851,5.733-9.719,24.594-14.162,28.249,1.759-7.727,16.013-26.588,18.883-48.273.093-.582.648-1.08,1.018-1.662.093.5.278.914.555,1.828-2.036,6.4-4.073,13.128-6.294,19.858m-34.711,58.16c1.111-4.4,4.073-8.309,5.831-12.546,8.238-19.608,25.547-65.638,31.194-84,.278,0,.555.083.833.083-1.018,5.484-1.666,11.05-3.24,16.451-7.683,26.338-12.5,34.979-24.252,59.573-2.314,4.819-7.127,17.116-10.367,20.439m-19.623,26.671c-3.888,8.059-7.405,16.119-11.2,24.261-1.666,3.739-1.481,4.9-6.2,2.659-2.036-1-4.443-1.329-6.572-2.243-13.144-5.65-18.235-14.042-28.88-21.27-10.922-7.478-25.64-25.591-32.3-36.309-6.85-10.884-8.331-22.018-10.367-34.148.185,0,.463-.083.648-.083-.555-10.8-.833-21.769,2.592-32.321,3.888-12.214,9.071-23.68,19.346-32.9,4.906-4.4,11.108-5.816,17.68-5.567,10.182.332,14.81,23.43,20.827,22.6,5-.748,8.979-19.11,30.176-31.573,14.162-8.226,43.134-21.187,55.26-3.739,4.35,6.231,2.129,24.261-.74,31.905-6.479,17.033-12.774,34.065-19.253,51.015-11.2,29.163-17.4,40.048-31.009,67.715M239.451,238.6c-9.071-6.9-18.513-13.543-26.936-21.021-6.479-5.733-21.66-23.347-22.493-31.988,5.184,6.4,10.46,12.8,15.643,19.193,17.587,20.19,25.177,21.519,40.635,36.392a12.668,12.668,0,0,1-6.85-2.576M204.092,222.56a3.2,3.2,0,0,0,.555-.249c3.98,2.243,12.311,7.229,14.625,10.22-2.314-.249-13.237-8.059-15.18-9.97m-7.127-14.54c2.962,3.157,6.017,6.315,8.979,9.389a.958.958,0,0,1-.093.5c-2.777-1.08-8.608-5.65-8.886-9.887m-20.179-72.534c.833-3.988,1.2-7.81,2.5-11.3,1.481-4.154,6.942-19.442,9.627-21.852a6.8,6.8,0,0,1-.278,1.329c-8.423,18.03-5.924,28.748-8.423,37.306-1.759-1.579-2.5-3.573-3.425-5.484m21.1-56.5c2.129-1.5,9.812-7.644,11.848-7.644-.648,1.5-10,7.893-12.126,8.807.093-.5.093-1,.278-1.163m152.173-9.555c-5.184-9.721-14.44-13.045-24.622-17.614-8.053-3.739-20.456-2.493-28.6-.083-8.238,2.576-17.124,3.905-24.159,9.139-2.129,1.5-4.073,3.24-6.294,4.653-16.661,10.884-17.679,18.2-20.919,15.371-8.886-8.059-21.752-19.775-35.729-15.454-21.475,6.73-28.047,25.341-34.526,42.706-4.443,11.715-7.405,23.6-7.312,35.976.093,12.214,3.8,23.763,8.238,35.229,3.147,8.059,5.461,16.783,9.719,24.51,1.944,3.573,10,17.2,12.774,20.273,14.07,15.371,34.8,15.454,51.465,27,5.184,3.656,11.57,4.653,17.772,5.982,9.9,2.16,15.736-21.187,25.085-33.982,23.141-31.739,41.468-61.733,56.278-97.294,8.053-19.193,10.922-37.223.833-56.415Z" transform="translate(-251.218 -27.272)"/>
  </g>
</svg>
